<svg width="22" height="22" viewBox="0 0 22 22" fill="none" xmlns="http://www.w3.org/2000/svg">
<path d="M0 11C0 4.92487 4.92487 0 11 0C17.0751 0 22 4.92487 22 11C22 17.0751 17.0751 22 11 22C4.92487 22 0 17.0751 0 11Z" fill="#77EC64"/>
<path d="M11.7878 17.8316C11.6671 17.7193 11.6067 17.5902 11.6067 17.4443C11.6067 17.2984 11.6671 17.1693 11.7878 17.057L13.9431 15.0531L7.16947 8.75518L5.01423 10.7591C4.89349 10.8713 4.75464 10.9247 4.59767 10.919C4.44071 10.9134 4.30185 10.8545 4.18111 10.7422C4.06037 10.63 4 10.4981 4 10.3465C4 10.1949 4.06037 10.063 4.18111 9.95078L4.77878 9.39508L4.19922 8.85622C4.07848 8.74395 4.01811 8.60924 4.01811 8.45207C4.01811 8.29491 4.07848 8.16019 4.19922 8.04793L5.30401 7.02073L4.97801 6.71762C4.85727 6.60535 4.79991 6.46783 4.80595 6.30505C4.81199 6.14227 4.87538 6.00475 4.99612 5.89249C5.11686 5.78022 5.26477 5.72409 5.43985 5.72409C5.61492 5.72409 5.76283 5.78022 5.88357 5.89249L6.19146 6.1956L7.27814 5.18523C7.39888 5.07297 7.54377 5.01684 7.71281 5.01684C7.88185 5.01684 8.02674 5.07297 8.14748 5.18523L8.74515 5.74093L9.36093 5.16839C9.48167 5.05613 9.62053 5 9.77749 5C9.93445 5 10.0733 5.05613 10.194 5.16839C10.3148 5.28066 10.3752 5.40976 10.3752 5.5557C10.3752 5.70164 10.3148 5.83074 10.194 5.94301L8.03881 7.94689L14.8124 14.2448L16.9677 12.2409C17.0884 12.1287 17.2303 12.0725 17.3933 12.0725C17.5563 12.0725 17.6981 12.1287 17.8189 12.2409C17.9396 12.3532 18 12.4851 18 12.6367C18 12.7882 17.9396 12.9201 17.8189 13.0324L17.2031 13.6049L17.7827 14.1438C17.9034 14.256 17.9638 14.3908 17.9638 14.5479C17.9638 14.7051 17.9034 14.8398 17.7827 14.9521L16.6598 15.9961L16.9858 16.2992C17.1065 16.4115 17.1669 16.5462 17.1669 16.7034C17.1669 16.8605 17.1065 16.9953 16.9858 17.1075C16.865 17.2198 16.7201 17.2759 16.5511 17.2759C16.3821 17.2759 16.2372 17.2198 16.1164 17.1075L15.7904 16.8044L14.7038 17.8148C14.583 17.927 14.4381 17.9832 14.2691 17.9832C14.1 17.9832 13.9552 17.927 13.8344 17.8148L13.2367 17.2591L12.621 17.8316C12.5002 17.9439 12.3614 18 12.2044 18C12.0474 18 11.9086 17.9439 11.7878 17.8316Z" fill="black"/>
</svg>
