<svg width="22" height="22" viewBox="0 0 22 22" fill="none" xmlns="http://www.w3.org/2000/svg">
<path d="M0 11C0 4.92487 4.92487 0 11 0C17.0751 0 22 4.92487 22 11C22 17.0751 17.0751 22 11 22C4.92487 22 0 17.0751 0 11Z" fill="#83B9EB"/>
<path d="M4.45208 16C4.32569 16 4.21875 15.9568 4.13125 15.8705C4.04375 15.7842 4 15.6739 4 15.5396C4 15.4149 4.04375 15.3094 4.13125 15.223C4.21875 15.1367 4.32569 15.0935 4.45208 15.0935H6.08542V14.4892C5.82292 14.4892 5.59201 14.3909 5.39271 14.1942C5.1934 13.9976 5.09375 13.7698 5.09375 13.5108V6.97842C5.09375 6.70983 5.1934 6.47962 5.39271 6.28777C5.59201 6.09592 5.82292 6 6.08542 6H15.9146C16.1868 6 16.4201 6.09592 16.6146 6.28777C16.809 6.47962 16.9062 6.70983 16.9062 6.97842V13.5108C16.9062 13.7698 16.809 13.9976 16.6146 14.1942C16.4201 14.3909 16.1868 14.4892 15.9146 14.4892V15.0935H17.5479C17.6743 15.0935 17.7812 15.1367 17.8687 15.223C17.9562 15.3094 18 15.4149 18 15.5396C18 15.6739 17.9562 15.7842 17.8687 15.8705C17.7812 15.9568 17.6743 16 17.5479 16H4.45208ZM6.08542 13.5108H15.9146V6.97842H6.08542V13.5108Z" fill="black"/>
</svg>
