<svg width="22" height="22" viewBox="0 0 22 22" fill="none" xmlns="http://www.w3.org/2000/svg">
<path d="M0 11C0 4.92487 4.92487 0 11 0C17.0751 0 22 4.92487 22 11C22 17.0751 17.0751 22 11 22C4.92487 22 0 17.0751 0 11Z" fill="#CBB1DF"/>
<path d="M10.7917 17.5453C10.225 17.1054 9.61111 16.7639 8.95 16.5208C8.28889 16.2776 7.60417 16.1561 6.89583 16.1561C6.4 16.1561 5.91302 16.2198 5.4349 16.3471C4.95677 16.4745 4.49931 16.6539 4.0625 16.8854C3.81458 17.0128 3.57552 17.007 3.34531 16.8681C3.1151 16.7292 3 16.5266 3 16.2603V7.88995C3 7.7626 3.03247 7.64104 3.0974 7.52526C3.16233 7.40949 3.25972 7.32266 3.38958 7.26478C3.93264 6.98692 4.49931 6.77853 5.08958 6.63961C5.67986 6.50068 6.28194 6.43122 6.89583 6.43122C7.58056 6.43122 8.25052 6.51804 8.90573 6.6917C9.56094 6.86536 10.1896 7.12585 10.7917 7.47317V16.2603C11.3938 15.8782 12.0253 15.5917 12.6865 15.4007C13.3476 15.2096 14.0146 15.1141 14.6875 15.1141C15.1125 15.1141 15.5759 15.1547 16.0776 15.2357C16.5793 15.3167 17.0604 15.4846 17.5208 15.7393V6.96956C17.6375 7.01297 17.7523 7.05856 17.8651 7.10631C17.978 7.15407 18.0875 7.20689 18.1938 7.26478C18.3118 7.33424 18.4062 7.42499 18.4771 7.53702C18.5479 7.64906 18.5833 7.76671 18.5833 7.88995V16.2603C18.5833 16.5266 18.4682 16.7292 18.238 16.8681C18.0078 17.007 17.7688 17.0128 17.5208 16.8854C17.084 16.6539 16.6266 16.4745 16.1484 16.3471C15.6703 16.2198 15.1833 16.1561 14.6875 16.1561C13.9792 16.1561 13.2944 16.2776 12.6333 16.5208C11.9722 16.7639 11.3583 17.1054 10.7917 17.5453ZM11.8542 14.6453V8.51512L16.4583 4V10.7206L11.8542 14.6453ZM9.72917 15.7393V8.1157C9.32778 7.89573 8.86146 7.73365 8.33021 7.62946C7.79896 7.52526 7.32083 7.47317 6.89583 7.47317C6.34097 7.47317 5.82448 7.53105 5.34635 7.64682C4.86823 7.7626 4.44028 7.9104 4.0625 8.09023V15.7393C4.47569 15.5425 4.92135 15.3891 5.39948 15.2791C5.8776 15.1691 6.37934 15.1141 6.90469 15.1141C7.43003 15.1141 7.92882 15.1691 8.40104 15.2791C8.87326 15.3891 9.31597 15.5425 9.72917 15.7393Z" fill="black"/>
</svg>
