<svg width="22" height="22" viewBox="0 0 22 22" fill="none" xmlns="http://www.w3.org/2000/svg">
<path d="M0 11C0 4.92487 4.92487 0 11 0C17.0751 0 22 4.92487 22 11C22 17.0751 17.0751 22 11 22C4.92487 22 0 17.0751 0 11Z" fill="#D968B9"/>
<path d="M8.85185 18C8.06173 18 7.38889 17.7343 6.83333 17.203C6.27778 16.6717 6 16.0282 6 15.2725C6 14.505 6.27469 13.8585 6.82407 13.3331C7.37346 12.8077 8.04938 12.545 8.85185 12.545C9.18518 12.545 9.48457 12.5863 9.75 12.6689C10.0154 12.7516 10.2469 12.8697 10.4444 13.0232V6.20436C10.4444 5.87375 10.5679 5.59037 10.8148 5.35422C11.0617 5.11807 11.358 5 11.7037 5H13.6852C14.0556 5 14.3673 5.12103 14.6204 5.36308C14.8735 5.60513 15 5.90327 15 6.25749C15 6.61172 14.8735 6.91281 14.6204 7.16076C14.3673 7.40872 14.0556 7.5327 13.6852 7.5327H11.7037V15.2725C11.7037 16.0282 11.429 16.6717 10.8796 17.203C10.3302 17.7343 9.65432 18 8.85185 18Z" fill="black"/>
</svg>
